<svg xmlns="http://www.w3.org/2000/svg" xmlns:xlink="http://www.w3.org/1999/xlink" viewBox="0 0 674.64 355.93"><defs><style>.cls-1{isolation:isolate;}.cls-2{fill:url(#linear-gradient);}.cls-10,.cls-11,.cls-19,.cls-20,.cls-28,.cls-3,.cls-30,.cls-5{fill:none;}.cls-23,.cls-3{stroke:#01004c;}.cls-10,.cls-11,.cls-23,.cls-28,.cls-3,.cls-30,.cls-5,.cls-8{stroke-linecap:round;}.cls-10,.cls-11,.cls-23,.cls-3,.cls-30,.cls-8{stroke-linejoin:round;}.cls-19,.cls-3{stroke-width:1.06px;}.cls-4{fill:url(#linear-gradient-2);}.cls-5{stroke:#1dceb4;stroke-width:1.02px;}.cls-19,.cls-20,.cls-28,.cls-5{stroke-miterlimit:10;}.cls-6{fill:url(#linear-gradient-3);}.cls-7{fill:#f98091;}.cls-22,.cls-23,.cls-8{fill:#fff;}.cls-10,.cls-8{stroke:#91b6e0;}.cls-8{stroke-width:1.59px;}.cls-9{fill:#62a5e7;}.cls-10{stroke-width:0.99px;}.cls-11{stroke:#f98091;stroke-width:2.54px;}.cls-12{fill:url(#linear-gradient-4);}.cls-13{fill:url(#linear-gradient-5);}.cls-14{fill:url(#linear-gradient-6);}.cls-15{fill:#ffadb7;}.cls-16{fill:#fcd98e;}.cls-17{opacity:0.5;fill:url(#linear-gradient-7);}.cls-17,.cls-27,.cls-29,.cls-31,.cls-32,.cls-34,.cls-35{mix-blend-mode:overlay;}.cls-18{fill:#ea657b;}.cls-19,.cls-20{stroke:#ea657b;}.cls-20{stroke-width:0.8px;}.cls-21{fill:url(#linear-gradient-8);}.cls-23{stroke-width:3.18px;}.cls-24{fill:#303072;}.cls-25{fill:#282766;}.cls-26{fill:#01004c;}.cls-27,.cls-32,.cls-35{opacity:0.75;}.cls-27{fill:url(#linear-gradient-9);}.cls-28,.cls-30{stroke:#ef8998;stroke-width:0.53px;}.cls-29,.cls-31,.cls-34{opacity:0.51;}.cls-29{fill:url(#radial-gradient);}.cls-31{fill:url(#radial-gradient-2);}.cls-32{fill:url(#linear-gradient-10);}.cls-33{fill:#e95f5c;}.cls-34{fill:url(#radial-gradient-3);}.cls-35{fill:url(#linear-gradient-11);}</style><linearGradient id="linear-gradient" x1="361.62" y1="421.89" x2="361.62" y2="176.47" gradientUnits="userSpaceOnUse"><stop offset="0" stop-color="#a3cae2"/><stop offset="0.5" stop-color="#cbe4f7"/></linearGradient><linearGradient id="linear-gradient-2" x1="631.58" y1="340.67" x2="672.9" y2="269.1" gradientTransform="translate(-26.52 60.25) rotate(-5.38)" gradientUnits="userSpaceOnUse"><stop offset="0" stop-color="#148275"/><stop offset="1" stop-color="#14bda4"/></linearGradient><linearGradient id="linear-gradient-3" x1="611.36" y1="336.6" x2="631.73" y2="221.06" xlink:href="#linear-gradient-2"/><linearGradient id="linear-gradient-4" x1="188.61" y1="359.46" x2="188.61" y2="187.47" gradientTransform="matrix(0.99, -0.12, 0.12, 0.99, -36.32, 22.99)" xlink:href="#linear-gradient-2"/><linearGradient id="linear-gradient-5" x1="111.65" y1="362.49" x2="70.85" y2="291.82" gradientTransform="matrix(0.99, -0.12, 0.12, 0.99, -36.32, 22.99)" xlink:href="#linear-gradient-2"/><linearGradient id="linear-gradient-6" x1="132.56" y1="340.98" x2="132.56" y2="234.83" gradientTransform="matrix(0.99, -0.12, 0.12, 0.99, -36.32, 22.99)" xlink:href="#linear-gradient-2"/><linearGradient id="linear-gradient-7" x1="439.44" y1="232.19" x2="426.66" y2="210.05" gradientUnits="userSpaceOnUse"><stop offset="0.26"/><stop offset="0.88" stop-opacity="0"/></linearGradient><linearGradient id="linear-gradient-8" x1="248.48" y1="158.25" x2="365.93" y2="361.67" gradientTransform="translate(273.8 -141.09) rotate(45)" gradientUnits="userSpaceOnUse"><stop offset="0" stop-color="#fcd98e"/><stop offset="0.5" stop-color="#f4c36c"/></linearGradient><linearGradient id="linear-gradient-9" x1="199.1" y1="302.49" x2="200.92" y2="300.96" gradientUnits="userSpaceOnUse"><stop offset="0.21" stop-opacity="0"/><stop offset="1"/></linearGradient><radialGradient id="radial-gradient" cx="193.89" cy="293.59" r="3.69" gradientTransform="matrix(1, -0.05, 0.05, 1, -6.17, 13)" gradientUnits="userSpaceOnUse"><stop offset="0"/><stop offset="1" stop-opacity="0"/></radialGradient><radialGradient id="radial-gradient-2" cx="427.74" cy="217.3" r="4.11" gradientTransform="translate(282.12 -248.8) rotate(44.77)" xlink:href="#radial-gradient"/><linearGradient id="linear-gradient-10" x1="436.7" y1="212.49" x2="438.77" y2="214.56" gradientUnits="userSpaceOnUse"><stop offset="0"/><stop offset="0.79" stop-opacity="0"/></linearGradient><radialGradient id="radial-gradient-3" cx="525.65" cy="227.51" r="3.69" xlink:href="#radial-gradient"/><linearGradient id="linear-gradient-11" x1="533.32" y1="216.96" x2="535.2" y2="219.2" xlink:href="#linear-gradient-10"/></defs><title>2648312</title><g class="cls-1"><g id="OBJECTS"><path class="cls-2" d="M665.63,335.36c-21.25-29.43,12.84-67.82,5.3-100.63S632.08,180.31,584,209s-196.93,95.63-295,18.27-191.62-58-222.91,1.94c-35.85,68.59-22.62,137.24,4.68,192.67H665.63C679.61,397.63,686.88,364.78,665.63,335.36Z" transform="translate(-44.26 -66.76)"/><circle class="cls-3" cx="21.8" cy="301.66" r="5.03"/><circle class="cls-3" cx="175.9" cy="58.49" r="5.03"/><circle class="cls-3" cx="579.39" cy="98.51" r="5.03"/><path class="cls-3" d="M692.31,256.61a5,5,0,1,0-5,5A5,5,0,0,0,692.31,256.61Z" transform="translate(-44.26 -66.76)"/><path class="cls-3" d="M352.82,80a6.93,6.93,0,1,0-6.93,6.93A6.93,6.93,0,0,0,352.82,80Z" transform="translate(-44.26 -66.76)"/><path class="cls-3" d="M111.23,184c-2.48,8.45,14.4,12.86,22,7s10.62-17.75,5.1-20.83-5.59,6.71-11.46,7.41S113.47,176.42,111.23,184Z" transform="translate(-44.26 -66.76)"/><path class="cls-3" d="M677.52,319.77c-.78,16.35,17.33,14.35,28.65,8.78s17.07-21.18,7-25.28c-4.47-1.81-10.2,4.22-17.89,6.09S677.93,311,677.52,319.77Z" transform="translate(-44.26 -66.76)"/><path class="cls-4" d="M615.13,325s24.82-63,57.58-57.33S659.07,335.43,644.6,345Z" transform="translate(-44.26 -66.76)"/><path class="cls-5" d="M632.47,336.79c-.38-.26,35.2-50,44.7-63.22" transform="translate(-44.26 -66.76)"/><line class="cls-5" x1="581.73" y1="265.65" x2="613.59" y2="205.63"/><line class="cls-5" x1="594.37" y1="274.21" x2="637" y2="221.12"/><line class="cls-5" x1="611.36" y1="209.83" x2="615.58" y2="231.03"/><path class="cls-6" d="M583.33,313.92s20.91-102.29,56.31-91-8.3,102-23.26,115.33Z" transform="translate(-44.26 -66.76)"/><line class="cls-5" x1="597.97" y1="160.85" x2="556.82" y2="260.26"/><line class="cls-5" x1="575.58" y1="165.43" x2="548.95" y2="254.46"/><path class="cls-5" d="M608.26,332.32c-.25-.19,34-71.49,42.41-89" transform="translate(-44.26 -66.76)"/><line class="cls-5" x1="562.12" y1="184.71" x2="565.26" y2="199.93"/><line class="cls-5" x1="584.23" y1="194.06" x2="602.6" y2="184.47"/><line class="cls-5" x1="569.65" y1="185.27" x2="573.87" y2="219.08"/><line class="cls-5" x1="578.32" y1="235.15" x2="595.6" y2="226.09"/><path class="cls-7" d="M646.9,421.89c16.5-22.58,28.8-116-56.48-114.84-81.61,1.07-60.27,105.84-58.29,114.84Z" transform="translate(-44.26 -66.76)"/><rect class="cls-8" x="318.58" y="0.8" width="233.73" height="354.34"/><rect class="cls-9" x="347.66" y="28.47" width="135.46" height="7.13"/><line class="cls-10" x1="347.66" y1="48.18" x2="531.34" y2="48.18"/><line class="cls-10" x1="347.66" y1="62.02" x2="423.98" y2="62.02"/><rect class="cls-9" x="410.28" y="318.26" width="121.06" height="7.13"/><line class="cls-10" x1="347.66" y1="98.51" x2="483.12" y2="98.51"/><line class="cls-10" x1="347.66" y1="112.35" x2="423.98" y2="112.35"/><line class="cls-10" x1="347.66" y1="142.96" x2="483.12" y2="142.96"/><line class="cls-10" x1="347.66" y1="156.8" x2="455.86" y2="156.8"/><line class="cls-10" x1="347.66" y1="187.42" x2="483.12" y2="187.42"/><line class="cls-10" x1="347.66" y1="201.26" x2="390.43" y2="201.26"/><line class="cls-10" x1="347.66" y1="231.87" x2="483.12" y2="231.87"/><line class="cls-10" x1="347.66" y1="245.71" x2="423.98" y2="245.71"/><line class="cls-10" x1="347.66" y1="276.32" x2="483.12" y2="276.32"/><line class="cls-10" x1="347.66" y1="290.16" x2="423.98" y2="290.16"/><rect class="cls-10" x="512.26" y="95.15" width="19.08" height="19.08"/><path class="cls-11" d="M553.1,165.27s11.6,5.17,18.73,13.83" transform="translate(-44.26 -66.76)"/><line class="cls-11" x1="515.93" y1="112.35" x2="526.87" y2="92.78"/><rect class="cls-10" x="512.26" y="139.61" width="19.08" height="19.08"/><rect class="cls-10" x="512.26" y="184.06" width="19.08" height="19.08"/><path class="cls-11" d="M560.87,248.05s8.74,9.22,12,20" transform="translate(-44.26 -66.76)"/><line class="cls-11" x1="517.85" y1="196.79" x2="535.46" y2="182.91"/><rect class="cls-10" x="512.26" y="228.52" width="19.08" height="19.08"/><path class="cls-11" d="M553.1,298.63s11.6,5.17,18.73,13.84" transform="translate(-44.26 -66.76)"/><line class="cls-11" x1="515.93" y1="245.71" x2="526.87" y2="226.14"/><rect class="cls-10" x="512.26" y="272.97" width="19.08" height="19.08"/><path class="cls-11" d="M554,212l10.69,10.06s3.78-12.37,10.91-19.29" transform="translate(-44.26 -66.76)"/><path class="cls-12" d="M169.24,355.59c-17.4-24.2-35.78-123.07-15.53-150.64s41.49-24,53.11-6.57-17.11,90.38,25.92,153.53Z" transform="translate(-44.26 -66.76)"/><path class="cls-5" d="M181.13,206.69S169.37,260.28,194.37,347" transform="translate(-44.26 -66.76)"/><path class="cls-13" d="M106.43,378.48s-59-39.61-39-71,62,38.4,62,38.4Z" transform="translate(-44.26 -66.76)"/><line class="cls-5" x1="27.49" y1="238.5" x2="72.56" y2="296.99"/><line class="cls-5" x1="20.6" y1="257.82" x2="68.49" y2="302.77"/><line class="cls-5" x1="44.81" y1="236.36" x2="78.76" y2="288.2"/><line class="cls-5" x1="51.88" y1="270.16" x2="54.74" y2="251.52"/><line class="cls-5" x1="27.99" y1="264.75" x2="44.37" y2="260.41"/><path class="cls-14" d="M127.6,346.29c-.63.07-36.55-56.33-24.91-88.62s44.4-15.14,51.63,10.87,7,68.74,7,68.74Z" transform="translate(-44.26 -66.76)"/><path class="cls-5" d="M118.34,243.48c4.09,16,26.34,98.25,26.34,98.25" transform="translate(-44.26 -66.76)"/><line class="cls-5" x1="95.36" y1="182.47" x2="108.78" y2="272.74"/><line class="cls-5" x1="91.2" y1="277.43" x2="58.89" y2="195.33"/><line class="cls-5" x1="81.82" y1="205.95" x2="61.42" y2="201.75"/><line class="cls-5" x1="101.04" y1="220.64" x2="89.6" y2="234.89"/><line class="cls-5" x1="111.97" y1="209.82" x2="98.98" y2="206.81"/><path class="cls-7" d="M81.15,421.89c-5-33.75,22-101,66-101.42s54.61,25.3,102.16,30.89,69.32,36.22,64.53,58.18c-2.3,10.53-8.38,12.35-8.38,12.35Z" transform="translate(-44.26 -66.76)"/><path class="cls-15" d="M390.29,187.31l-1.41-1.77a6.83,6.83,0,0,1-5.16-5.38l-2.57-2.91c-.68-.79,0-1.82.91-1.15s2.35,1.82,2.35,1.82a11.23,11.23,0,0,0-2-3.22c-1.16-1.16-2.77-1.81-2.37-2.77s2.39.24,2.39.24c-.7-.77-1.84-1.26-1.28-2.18s2.79.61,2.79.61c-.66-.6-.81-1-.53-1.38.71-.9,4.6,1.28,6.17,4.9,0,0,3.87,3.95,3.63,6.8l1.57,1.86Z" transform="translate(-44.26 -66.76)"/><path class="cls-15" d="M388.19,178.14a5.9,5.9,0,0,1,1.68-2.42s-1.36-1.76-1.12-3.13,1.42-1.27,1.74-.52a9.58,9.58,0,0,0,1.46,2.59c.64.67,2.5,3.74,1.28,6.26S388.19,178.14,388.19,178.14Z" transform="translate(-44.26 -66.76)"/><path class="cls-15" d="M382.45,172.17A12.72,12.72,0,0,1,386,176" transform="translate(-44.26 -66.76)"/><path class="cls-15" d="M384,170.6a13.66,13.66,0,0,1,3.51,3.9" transform="translate(-44.26 -66.76)"/><path class="cls-16" d="M388.71,187.76s16.92,22.36,37.19,38.58,20.27-7.27,20.27-7.27S408,196.19,394.59,181.65Z" transform="translate(-44.26 -66.76)"/><path class="cls-17" d="M425.9,226.34c20.27,16.22,20.27-7.27,20.27-7.27s-7-4.17-16-10.08c-9.13,2.46-11.75,7.88-12.48,10.34C420.36,221.73,423.09,224.1,425.9,226.34Z" transform="translate(-44.26 -66.76)"/><rect class="cls-18" x="246.03" y="72.76" width="33.83" height="7.69"/><rect class="cls-7" x="236.38" y="46.34" width="53.12" height="26.42"/><line class="cls-19" x1="240.16" y1="46.34" x2="240.16" y2="72.76"/><line class="cls-19" x1="244.71" y1="46.34" x2="244.71" y2="72.76"/><line class="cls-19" x1="249.27" y1="46.34" x2="249.27" y2="72.76"/><line class="cls-19" x1="253.83" y1="46.34" x2="253.83" y2="72.76"/><line class="cls-19" x1="258.39" y1="46.34" x2="258.39" y2="72.76"/><line class="cls-19" x1="262.94" y1="46.34" x2="262.94" y2="72.76"/><line class="cls-19" x1="267.5" y1="46.34" x2="267.5" y2="72.76"/><line class="cls-19" x1="272.06" y1="46.34" x2="272.06" y2="72.76"/><line class="cls-19" x1="276.61" y1="46.34" x2="276.61" y2="72.76"/><line class="cls-19" x1="281.17" y1="46.34" x2="281.17" y2="72.76"/><line class="cls-19" x1="285.73" y1="46.34" x2="285.73" y2="72.76"/><rect class="cls-7" x="236.9" y="148.1" width="18.23" height="11.74" transform="matrix(0.87, -0.5, 0.5, 0.87, -88.29, 76.88)"/><line class="cls-20" x1="192.58" y1="85.73" x2="198.45" y2="95.9"/><line class="cls-20" x1="194.66" y1="84.53" x2="200.53" y2="94.7"/><line class="cls-20" x1="196.74" y1="83.33" x2="202.61" y2="93.5"/><line class="cls-20" x1="198.81" y1="82.13" x2="204.68" y2="92.3"/><line class="cls-20" x1="200.89" y1="80.93" x2="206.76" y2="91.1"/><line class="cls-20" x1="202.97" y1="79.73" x2="208.84" y2="89.9"/><line class="cls-20" x1="205.05" y1="78.53" x2="210.92" y2="88.7"/><circle class="cls-21" cx="307.21" cy="259.96" r="117.43" transform="translate(-138.11 226.61) rotate(-45)"/><circle class="cls-22" cx="307.21" cy="259.96" r="106.82" transform="translate(-138.11 226.61) rotate(-45)"/><circle class="cls-7" cx="262.94" cy="193.21" r="8.39"/><path class="cls-7" d="M307.21,182.73h0a3.63,3.63,0,0,1,3.63,3.63V260h-7.27v-73.6A3.63,3.63,0,0,1,307.21,182.73Z" transform="translate(-44.26 -66.76)"/><path class="cls-7" d="M253.11,260h0a3.62,3.62,0,0,1,3.63-3.63h50.47v7.27H256.74A3.63,3.63,0,0,1,253.11,260Z" transform="translate(-44.26 -66.76)"/><line class="cls-23" x1="262.94" y1="97.2" x2="262.94" y2="106.75"/><line class="cls-23" x1="214.94" y1="110.07" x2="219.71" y2="118.33"/><line class="cls-23" x1="179.8" y1="145.21" x2="188.07" y2="149.98"/><line class="cls-23" x1="166.94" y1="193.21" x2="176.48" y2="193.21"/><line class="cls-23" x1="179.8" y1="241.21" x2="188.07" y2="236.44"/><line class="cls-23" x1="214.94" y1="276.35" x2="219.71" y2="268.08"/><line class="cls-23" x1="262.94" y1="289.21" x2="262.94" y2="279.67"/><line class="cls-23" x1="310.94" y1="276.35" x2="306.17" y2="268.08"/><line class="cls-23" x1="346.08" y1="241.21" x2="337.82" y2="236.44"/><line class="cls-23" x1="358.94" y1="193.21" x2="349.4" y2="193.21"/><line class="cls-23" x1="346.08" y1="145.21" x2="337.82" y2="149.98"/><line class="cls-23" x1="310.94" y1="110.07" x2="306.17" y2="118.33"/><polygon class="cls-22" points="166.41 348.73 165.12 355.13 185.42 355.13 173.54 348.73 166.41 348.73"/><path class="cls-24" d="M172.51,377.7c9.78-7.34,21.14-28.77,37.63-26.11s7.67,63.89,7.67,63.89l-7.1.34-6.33-34.66S190.54,394.37,181,393.93C158.36,392.91,172.51,377.7,172.51,377.7Z" transform="translate(-44.26 -66.76)"/><path class="cls-25" d="M157.51,366.27s-5.8,20.34,5.1,26.35,44.46,11.88,44,11.88-21.81-2.66-33.41-.84v7.55s35.23,8.25,47,1.82,8.53-24.19-28.1-39Z" transform="translate(-44.26 -66.76)"/><polygon class="cls-22" points="128.97 336.91 123.1 335.65 121.96 355.13 128.97 344.45 128.97 336.91"/><path class="cls-26" d="M196.17,302.92c-2.18-.85-9.82-4.07-9.28-11.81,0,0-3.49-6.58.41-11.86,4.79-6.49,9.54-4.39,9.54-4.39s12.48-5.38,14.66-.21-3.26,10.24-3.26,10.24Z" transform="translate(-44.26 -66.76)"/><path class="cls-15" d="M194.35,305.93a13.05,13.05,0,0,0,6.48.84l.52-5.3s6.41.36,7.26-6.25a32.53,32.53,0,0,0-.77-12.08s-2.91-.92-4.94,2.89-1.81,4.72-3.22,4.59-.63-2.86-3.57-2.83-5.77,6.18-.76,7.78Z" transform="translate(-44.26 -66.76)"/><path class="cls-27" d="M201.35,301.47a6.64,6.64,0,0,1-3.26-1.07,4.24,4.24,0,0,0,3,3.33Z" transform="translate(-44.26 -66.76)"/><path class="cls-28" d="M194.83,293.55a1.77,1.77,0,0,1-.61-1.76c.19-1.26,1.22-2.4,1.9-2.41h0c.72,0,.77.1,1.09.81" transform="translate(-44.26 -66.76)"/><path class="cls-28" d="M194.91,290.22a2,2,0,0,0,1.36,1.51" transform="translate(-44.26 -66.76)"/><path class="cls-29" d="M207.09,295.4a3.69,3.69,0,1,0-3.48,3.89A3.69,3.69,0,0,0,207.09,295.4Z" transform="translate(-44.26 -66.76)"/><path class="cls-28" d="M205,288.65a2.33,2.33,0,0,1,2.65.13" transform="translate(-44.26 -66.76)"/><path class="cls-15" d="M247.9,359.81l5.39,2.1s.78-1.08,3.67-1,3.29-.47,3.87.44-.91,1.76-2,2.13a1,1,0,0,0-.3,1.82,29.89,29.89,0,0,0,6.15,2.16c1.35.11,1.77,1.58.67,1.95,0,0,1.08.2,1.05,1s-1.1,1.1-1.74,1a.81.81,0,0,1,.33,1c-.23.63-1.64,1-4.35.37a19.7,19.7,0,0,1-4.14-1.37s2,1.54,2.72,2.21.52,1.8-.83,1.13a43,43,0,0,1-8.09-6.51l-4.81-1.69Z" transform="translate(-44.26 -66.76)"/><path class="cls-30" d="M264.9,369.34a22.24,22.24,0,0,1-6.66-1.54" transform="translate(-44.26 -66.76)"/><path class="cls-30" d="M264.13,371.4a26,26,0,0,1-6.43-1.61" transform="translate(-44.26 -66.76)"/><path class="cls-16" d="M157.51,366.27s17,6.71,34.6,7.76l13-39S215.83,356.41,247.9,368l3.34-7.13s-20.53-16.54-37.32-46.21C203.71,296.58,159.26,301.33,157.51,366.27Z" transform="translate(-44.26 -66.76)"/><polygon class="cls-7" points="370.18 342.79 369.29 348.69 357.02 355.13 379.62 355.13 378.99 342.79 370.18 342.79"/><polygon class="cls-7" points="434.15 337.9 436.23 343.13 429.54 354.57 447.76 343.77 441.95 333.25 434.15 337.9"/><path class="cls-25" d="M425.83,290.36c-8.6,27.05-17.39,60.6-12.36,119.53h10.42s-.79-32.71,4.67-52S445.75,313,445.75,313s7.55,62.26,32.08,92.74l9.06-5.09S472,347.61,466.3,289.53Z" transform="translate(-44.26 -66.76)"/><path class="cls-26" d="M443.7,213.14c6.07-2.95,4.47-6.78,6.42-9.89s4.36-11.57.63-15.67-10-1.78-10-1.78-4.36-5-12.46-3.24-7.18,12.31-1.54,14.45a43,43,0,0,1,9.64,5.17Z" transform="translate(-44.26 -66.76)"/><path class="cls-15" d="M436.86,221.36l-.8-8.23s-10.52,2.07-9.94-8.48a11.09,11.09,0,0,1-2.21-1.13,41.44,41.44,0,0,0,3.69-9.44s2.63,3.65,6,2.4,5-.62,5.48,1.12,1.2,2.31,2,1.42-.2-4,3.38-3.85,2.54,9.24-2,8.39l2.39,17.32S440.29,222.79,436.86,221.36Z" transform="translate(-44.26 -66.76)"/><circle class="cls-31" cx="432.75" cy="206.7" r="4.11" transform="translate(-55.04 322.37) rotate(-47.89)"/><path class="cls-28" d="M442.87,196.88c.2-.37.55-.53,1.33-.53h.17c.72,0,1,1.2,1,2.27a5.73,5.73,0,0,1-.19,1.37" transform="translate(-44.26 -66.76)"/><path class="cls-28" d="M444.13,198.61a5,5,0,0,1,1.11-1.25" transform="translate(-44.26 -66.76)"/><path class="cls-28" d="M428.15,200a2.41,2.41,0,0,1,3.15,0" transform="translate(-44.26 -66.76)"/><path class="cls-32" d="M436.36,216.23c2.31-.46,3.92-4.25,3.92-4.25a16.86,16.86,0,0,1-4.22,1.15Z" transform="translate(-44.26 -66.76)"/><path class="cls-15" d="M378.48,270.89a47.14,47.14,0,0,1-7.4,4c-4.32,1.76-5-.43-5-.43a2.61,2.61,0,0,1-2.07-1.57,11.52,11.52,0,0,1-2-.13.91.91,0,0,1-.77-.77h0a.93.93,0,0,1,.68-1l3.62-.93c1.89-.47,1.05-1.58,0-1.74s-2.1-1-1.75-1.73,2.13-.49,3.59-.09,3.75.63,7.12-1Z" transform="translate(-44.26 -66.76)"/><path class="cls-30" d="M366.64,274.42a11.71,11.71,0,0,0,1.84-.31" transform="translate(-44.26 -66.76)"/><path class="cls-30" d="M364.63,272.83a11.14,11.14,0,0,0,2.78-.58" transform="translate(-44.26 -66.76)"/><path class="cls-16" d="M373.62,265.62l3.35,7.55s28.52-8.18,47-30.61l1.89,47.8s19.71,4.83,40.47-.83c0,0,7.76-65.85-16.78-71.93s-36.68,16.57-48.64,27.89C394.38,251.64,373.62,265.62,373.62,265.62Z" transform="translate(-44.26 -66.76)"/><path class="cls-15" d="M558,344.57l7.27,64.69H554.51s-9.78-53.4-9.78-61.43Z" transform="translate(-44.26 -66.76)"/><polygon class="cls-26" points="521.03 342.5 522.75 355.13 499.62 355.13 510.75 349.3 510.25 342.5 521.03 342.5"/><path class="cls-15" d="M526.93,347.33l-5.51,61.93-10.78-1s1.75-54.41,3.25-62.43Z" transform="translate(-44.26 -66.76)"/><polygon class="cls-26" points="477.15 342.5 477.15 355.13 451.14 351.96 465.68 347.48 466.37 341.5 477.15 342.5"/><path class="cls-26" d="M559.4,232.61c3-5.06,4.83-10.66-.5-15.62s-3.7-13.22-9-16.23-6.58-11.22-17.42-10-10.6,6.46-9.65,11.66-4.27,13.35,3.25,16.36,9.47,2.51,10,7.84S551.75,245.66,559.4,232.61Z" transform="translate(-44.26 -66.76)"/><path class="cls-33" d="M557,277.06s10.09,84.81,12.59,108.88c0,0-32.46,10.36-64.93,1.17l12-108.66Z" transform="translate(-44.26 -66.76)"/><path class="cls-16" d="M545.24,221.48h0l-10.43,4L526,221.84a58.51,58.51,0,0,0-9.35,2.42v54.19C536,282.53,557,277.06,557,277.06l.84-52.42A73.59,73.59,0,0,0,545.24,221.48Z" transform="translate(-44.26 -66.76)"/><rect class="cls-22" x="524.42" y="243.35" width="21.45" height="33.71" transform="translate(1026.03 453.65) rotate(180)"/><path class="cls-15" d="M518.3,270.53s1.59.16,4,.28a8.91,8.91,0,0,1,4,1c.61.27,1.76-.54.64-1.32a12.92,12.92,0,0,0-2.63-1.11,14.75,14.75,0,0,0,4.4-1.05c2.13-.92,1.58-2.1,1.07-2.22,0,0,1.26-.72,1-1.58a1,1,0,0,0-1.22-.68s.91-.81.48-1.6-3.79-.19-5.62,0v-1.88s-1.24-.24-3.69,1.38-1.44,1.85-3.05,3Z" transform="translate(-44.26 -66.76)"/><path class="cls-28" d="M528.85,264.19a35.56,35.56,0,0,1-4.38,1" transform="translate(-44.26 -66.76)"/><path class="cls-28" d="M529.11,266.41a30.16,30.16,0,0,1-4.55,1.09" transform="translate(-44.26 -66.76)"/><path class="cls-15" d="M551.55,270.92s-1.6.09-4,.1a9,9,0,0,0-4.07.84c-.62.25-1.73-.62-.57-1.34a12.39,12.39,0,0,1,2.68-1,15,15,0,0,1-4.35-1.25c-2.09-1-1.48-2.17-1-2.26,0,0-1.23-.78-.94-1.64a1.05,1.05,0,0,1,1.25-.62s-.86-.85-.4-1.62,3.86.24,5.67.55v-2.11s1.27-.2,3.65,1.53,1.36,1.91,2.91,3.18Z" transform="translate(-44.26 -66.76)"/><path class="cls-28" d="M541.22,264.08a36.18,36.18,0,0,0,4.41,1.21" transform="translate(-44.26 -66.76)"/><path class="cls-28" d="M540.86,266.28a30.32,30.32,0,0,0,4.57,1.33" transform="translate(-44.26 -66.76)"/><path class="cls-16" d="M557.8,224.64c10.75,4.48,15.14,17,17,27.67s-1,15.18-11.66,18.3c-4.42,1.29-12.08.82-12.08.82l1.2-6.62,4.89-1.05Z" transform="translate(-44.26 -66.76)"/><path class="cls-16" d="M516.6,224.26c-14.49,4.48-19.38,32.32-17.62,40.9s20.15,6.36,20.15,6.36l-.72-7H516.6V224.64" transform="translate(-44.26 -66.76)"/><path class="cls-15" d="M526,221.84a68.56,68.56,0,0,1,9.59-1.05,50.68,50.68,0,0,1,9.7.69c-.59,1.73-2.79,6-10.09,5.79A10.69,10.69,0,0,1,526,221.84Z" transform="translate(-44.26 -66.76)"/><path class="cls-15" d="M539,210.23l.33,14.06a10.44,10.44,0,0,1-6.11.14l-.28-7.11s-6.8.09-6.76-7.44a2.68,2.68,0,0,1-2.06-.62s2.42-4.25,2.28-8.06c0,0,5.31-3.06,7.34.19,2.12,3.41.84,5.36,2.49,5.36s.56-5.27,3.9-4.61S543.32,209.24,539,210.23Z" transform="translate(-44.26 -66.76)"/><path class="cls-28" d="M539.18,203.23a.71.71,0,0,1,.36-.09,2.11,2.11,0,0,1,.33,0c1.08.21,1.48,1.42,1.49,2.39a3.91,3.91,0,0,1-.11,1" transform="translate(-44.26 -66.76)"/><path class="cls-28" d="M539.61,205.43a2.79,2.79,0,0,1,1.25-1.6" transform="translate(-44.26 -66.76)"/><path class="cls-34" d="M534.76,211.37a3.7,3.7,0,1,0-3.49,3.89A3.69,3.69,0,0,0,534.76,211.37Z" transform="translate(-44.26 -66.76)"/><path class="cls-28" d="M528,204.35a3.09,3.09,0,0,1,2.55-.19" transform="translate(-44.26 -66.76)"/><path class="cls-35" d="M533,220.3a4.21,4.21,0,0,0,3.44-3.32,12.53,12.53,0,0,1-3.56.34Z" transform="translate(-44.26 -66.76)"/></g></g></svg>